<svg width="70" height="70" viewBox="0 0 70 70" fill="none" xmlns="http://www.w3.org/2000/svg">
<rect x="1" y="1" width="68" height="68" rx="34" fill="#42389E" fill-opacity="0.2"/>
<rect x="1" y="1" width="68" height="68" rx="34" stroke="#42389E" stroke-width="2"/>
<path d="M24.5832 22.5H44.8957C49.2846 22.5 51.479 22.5 53.0555 23.5533C53.738 24.0093 54.3238 24.5953 54.7798 25.2777C55.8332 26.8541 55.8332 29.0486 55.8332 33.4375C55.8332 40.7525 55.8332 44.4098 54.0776 47.0373C53.6978 47.6058 53.2636 48.1344 52.7821 48.6156M17.2175 48.6156C14.1665 45.5648 14.1665 40.6542 14.1665 30.8333V24.4672C14.1665 20.6829 14.1665 18.7907 14.9588 17.371C15.5236 16.3589 16.3587 15.5238 17.3708 14.959C18.7906 14.1667 20.6828 14.1667 24.4671 14.1667C26.8915 14.1667 28.1038 14.1667 29.165 14.5646C31.5878 15.4732 32.5869 17.6741 33.6803 19.8607L34.9998 22.5" stroke="#42389E" stroke-width="1.5" stroke-linecap="round"/>
<path d="M48.021 54.2708L43.3335 49.5833V43.3333M48.021 52.7083C47.1581 52.7083 46.4585 53.4079 46.4585 54.2708C46.4585 55.1337 47.1581 55.8333 48.021 55.8333C48.8839 55.8333 49.5835 55.1337 49.5835 54.2708C49.5835 53.4079 48.8839 52.7083 48.021 52.7083Z" stroke="#42389E" stroke-width="1.5" stroke-linecap="round" stroke-linejoin="round"/>
<path d="M21.979 54.2708L26.6665 49.5833V43.3333M21.979 52.7083C22.8419 52.7083 23.5415 53.4079 23.5415 54.2708C23.5415 55.1337 22.8419 55.8333 21.979 55.8333C21.1161 55.8333 20.4165 55.1337 20.4165 54.2708C20.4165 53.4079 21.1161 52.7083 21.979 52.7083Z" stroke="#42389E" stroke-width="1.5" stroke-linecap="round" stroke-linejoin="round"/>
<path d="M35 54.2708V43.3333M35 52.7083C34.1371 52.7083 33.4375 53.4079 33.4375 54.2708C33.4375 55.1337 34.1371 55.8333 35 55.8333C35.8629 55.8333 36.5625 55.1337 36.5625 54.2708C36.5625 53.4079 35.8629 52.7083 35 52.7083Z" stroke="#42389E" stroke-width="1.5" stroke-linecap="round" stroke-linejoin="round"/>
</svg>
