<svg width="70" height="70" viewBox="0 0 70 70" fill="none" xmlns="http://www.w3.org/2000/svg">
<rect x="1" y="1" width="68" height="68" rx="34" fill="#42389E" fill-opacity="0.2"/>
<rect x="1" y="1" width="68" height="68" rx="34" stroke="#42389E" stroke-width="2"/>
<path d="M18.3332 42.2917C16.032 42.2917 14.1665 40.4263 14.1665 38.125C14.1665 35.8238 16.032 33.9583 18.3332 33.9583" stroke="#42389E" stroke-width="1.5" stroke-linecap="round" stroke-linejoin="round"/>
<path d="M51.6665 42.2917C53.9678 42.2917 55.8332 40.4263 55.8332 38.125C55.8332 35.8238 53.9678 33.9583 51.6665 33.9583" stroke="#42389E" stroke-width="1.5" stroke-linecap="round" stroke-linejoin="round"/>
<path d="M24.5835 24.5833V18.3333" stroke="#42389E" stroke-width="1.5" stroke-linejoin="round"/>
<path d="M45.4165 24.5833V18.3333" stroke="#42389E" stroke-width="1.5" stroke-linejoin="round"/>
<path d="M24.5833 18.3333C25.7339 18.3333 26.6667 17.4006 26.6667 16.25C26.6667 15.0994 25.7339 14.1667 24.5833 14.1667C23.4327 14.1667 22.5 15.0994 22.5 16.25C22.5 17.4006 23.4327 18.3333 24.5833 18.3333Z" stroke="#42389E" stroke-width="1.5" stroke-linejoin="round"/>
<path d="M45.4168 18.3333C46.5674 18.3333 47.5002 17.4006 47.5002 16.25C47.5002 15.0994 46.5674 14.1667 45.4168 14.1667C44.2662 14.1667 43.3335 15.0994 43.3335 16.25C43.3335 17.4006 44.2662 18.3333 45.4168 18.3333Z" stroke="#42389E" stroke-width="1.5" stroke-linejoin="round"/>
<path d="M38.125 24.5833H31.875C25.9824 24.5833 23.0362 24.5833 21.2056 26.477C19.375 28.3707 19.375 31.4185 19.375 37.5144C19.375 43.6102 19.375 46.6579 21.2056 48.5517C23.0362 50.4454 25.9824 50.4454 31.875 50.4454H34.011C35.6602 50.4454 36.2421 50.786 37.3785 52.0235C38.6354 53.3923 40.5815 55.2187 42.3421 55.644C44.8446 56.2487 45.1248 55.4123 44.5665 53.0273C44.4075 52.3479 44.0108 51.2617 44.4292 50.6287C44.6635 50.2742 45.054 50.1871 45.835 50.0127C47.0671 49.7375 48.0829 49.2877 48.7944 48.5517C50.625 46.6579 50.625 43.6102 50.625 37.5144C50.625 31.4185 50.625 28.3707 48.7944 26.477C46.9637 24.5833 44.0175 24.5833 38.125 24.5833Z" stroke="#42389E" stroke-width="1.5" stroke-linejoin="round"/>
<path d="M29.7915 41.25C30.9792 42.515 32.87 43.3333 34.9998 43.3333C37.1296 43.3333 39.0205 42.515 40.2082 41.25" stroke="#42389E" stroke-width="1.5" stroke-linecap="round" stroke-linejoin="round"/>
<path d="M28.7687 32.9167H28.75" stroke="#42389E" stroke-width="2" stroke-linecap="round" stroke-linejoin="round"/>
<path d="M41.2687 32.9167H41.25" stroke="#42389E" stroke-width="2" stroke-linecap="round" stroke-linejoin="round"/>
</svg>
