<svg width="70" height="70" viewBox="0 0 70 70" fill="none" xmlns="http://www.w3.org/2000/svg">
<rect x="1" y="1" width="68" height="68" rx="34" fill="#42389E" fill-opacity="0.2"/>
<rect x="1" y="1" width="68" height="68" rx="34" stroke="#42389E" stroke-width="2"/>
<path d="M43.3335 30.8333L45.8887 33.0358C46.9631 33.9617 47.5002 34.4248 47.5002 35C47.5002 35.5752 46.9631 36.0383 45.8887 36.9642L43.3335 39.1667" stroke="#42389E" stroke-width="1.5" stroke-linecap="round" stroke-linejoin="round"/>
<path d="M26.6667 30.8333L24.1114 33.0358C23.0371 33.9617 22.5 34.4248 22.5 35C22.5 35.5752 23.0371 36.0383 24.1114 36.9642L26.6667 39.1667" stroke="#42389E" stroke-width="1.5" stroke-linecap="round" stroke-linejoin="round"/>
<path d="M37.0832 28.75L32.9165 41.25" stroke="#42389E" stroke-width="1.5" stroke-linecap="round" stroke-linejoin="round"/>
<path d="M15.2085 35C15.2085 25.6701 15.2085 21.0052 18.1069 18.1068C21.0053 15.2083 25.6703 15.2083 35.0002 15.2083C44.33 15.2083 48.995 15.2083 51.8935 18.1068C54.7918 21.0052 54.7918 25.6701 54.7918 35C54.7918 44.3298 54.7918 48.9948 51.8935 51.8933C48.995 54.7917 44.33 54.7917 35.0002 54.7917C25.6703 54.7917 21.0053 54.7917 18.1069 51.8933C15.2085 48.9948 15.2085 44.3298 15.2085 35Z" stroke="#42389E" stroke-width="1.5"/>
</svg>
