<svg width="70" height="70" viewBox="0 0 70 70" fill="none" xmlns="http://www.w3.org/2000/svg">
<rect x="1" y="1" width="68" height="68" rx="34" fill="#42389E" fill-opacity="0.2"/>
<rect x="1" y="1" width="68" height="68" rx="34" stroke="#42389E" stroke-width="2"/>
<path d="M18.3335 35C18.3335 27.1433 18.3335 23.2149 20.7743 20.7741C23.2151 18.3333 27.1434 18.3333 35.0002 18.3333C42.8568 18.3333 46.7854 18.3333 49.226 20.7741C51.6668 23.2149 51.6668 27.1433 51.6668 35C51.6668 42.8567 51.6668 46.7852 49.226 49.2258C46.7854 51.6667 42.8568 51.6667 35.0002 51.6667C27.1434 51.6667 23.2151 51.6667 20.7743 49.2258C18.3335 46.7852 18.3335 42.8567 18.3335 35Z" stroke="#42389E" stroke-width="1.5" stroke-linejoin="round"/>
<path d="M25.625 41.25L29.4623 29.7382C29.659 29.1481 30.2113 28.75 30.8333 28.75C31.4554 28.75 32.0077 29.1481 32.2044 29.7382L36.0417 41.25M27.7083 37.0833H33.9583" stroke="#42389E" stroke-width="1.5" stroke-linecap="round" stroke-linejoin="round"/>
<path d="M42.2915 28.75V41.25" stroke="#42389E" stroke-width="1.5" stroke-linecap="round" stroke-linejoin="round"/>
<path d="M26.6665 14.1667V18.3333M43.3332 14.1667V18.3333M34.9998 14.1667V18.3333M26.6665 51.6667V55.8333M34.9998 51.6667V55.8333M43.3332 51.6667V55.8333M55.8332 43.3333H51.6665M18.3332 26.6667H14.1665M18.3332 43.3333H14.1665M18.3332 35H14.1665M55.8332 26.6667H51.6665M55.8332 35H51.6665" stroke="#42389E" stroke-width="1.5" stroke-linecap="round" stroke-linejoin="round"/>
</svg>
