<svg width="70" height="70" viewBox="0 0 70 70" fill="none" xmlns="http://www.w3.org/2000/svg">
<rect x="1" y="1" width="68" height="68" rx="34" fill="#42389E" fill-opacity="0.2"/>
<rect x="1" y="1" width="68" height="68" rx="34" stroke="#42389E" stroke-width="2"/>
<path d="M42.2918 55.8333V54.7917C42.2918 52.4904 44.2337 50.626 46.2966 49.6062C48.3014 48.6154 49.9883 46.9815 50.2012 45.0652L50.6252 41.25L54.7918 39.1667L49.5835 31.3542C49.5835 21.8618 41.8883 14.1667 32.396 14.1667C22.9036 14.1667 15.2085 21.8618 15.2085 31.3542C15.2085 37.1623 18.0894 42.2975 22.5002 45.4087M22.5002 45.4087V55.8333M22.5002 45.4087C24.064 46.5119 25.8202 47.3606 27.7085 47.8948" stroke="#42389E" stroke-width="1.5" stroke-linecap="round" stroke-linejoin="round"/>
<path d="M33.5579 35L30.5148 25.5811C30.3235 24.9889 29.7365 24.5833 29.0707 24.5833C28.4048 24.5833 27.8179 24.9889 27.6265 25.5811L24.5835 35M39.1668 24.5833V35M25.7053 31.875H32.436" stroke="#42389E" stroke-width="1.5" stroke-linecap="round" stroke-linejoin="round"/>
</svg>
