<svg width="292" height="339" viewBox="0 0 292 339" fill="none" xmlns="http://www.w3.org/2000/svg">
<g opacity="0.27">
<path d="M289 168.5H135.5C121.141 168.5 109.5 156.859 109.5 142.5V138C109.5 123.641 97.8594 112 83.5 112H-237" stroke="url(#paint0_linear_1_7922)"/>
<path d="M289 169H135.5C121.141 169 109.5 180.641 109.5 195V198C109.5 212.359 97.8594 224 83.5 224H-237" stroke="url(#paint1_linear_1_7922)"/>
<path d="M288 168H136.5C122.141 168 110.5 156.359 110.5 142V56.5C110.5 25.5721 85.4279 0.5 54.5 0.5H-238.5" stroke="url(#paint2_linear_1_7922)"/>
<path d="M292 168H137.972C123.612 168 111.972 179.641 111.972 194V282C111.972 312.928 86.8995 338 55.9715 338H-242" stroke="url(#paint3_linear_1_7922)"/>
</g>
<defs>
<linearGradient id="paint0_linear_1_7922" x1="-236.345" y1="112" x2="-197.533" y2="276.746" gradientUnits="userSpaceOnUse">
<stop stop-color="#7C7C84" stop-opacity="0.26"/>
<stop offset="1" stop-color="#7C7C84" stop-opacity="0.51"/>
</linearGradient>
<linearGradient id="paint1_linear_1_7922" x1="-236.345" y1="224" x2="-199.465" y2="63.185" gradientUnits="userSpaceOnUse">
<stop stop-color="#7C7C84" stop-opacity="0.26"/>
<stop offset="1" stop-color="#7C7C84" stop-opacity="0.51"/>
</linearGradient>
<linearGradient id="paint2_linear_1_7922" x1="-237.844" y1="0.500002" x2="4.07491" y2="347.212" gradientUnits="userSpaceOnUse">
<stop stop-color="#7C7C84" stop-opacity="0.26"/>
<stop offset="1" stop-color="#7C7C84" stop-opacity="0.51"/>
</linearGradient>
<linearGradient id="paint3_linear_1_7922" x1="-241.335" y1="338" x2="4.25177" y2="-13.7327" gradientUnits="userSpaceOnUse">
<stop stop-color="#7C7C84" stop-opacity="0.26"/>
<stop offset="1" stop-color="#7C7C84" stop-opacity="0.51"/>
</linearGradient>
</defs>
</svg>
