<svg width="70" height="70" viewBox="0 0 70 70" fill="none" xmlns="http://www.w3.org/2000/svg">
<rect x="1" y="1" width="68" height="68" rx="34" fill="#42389E" fill-opacity="0.2"/>
<rect x="1" y="1" width="68" height="68" rx="34" stroke="#42389E" stroke-width="2"/>
<path d="M25.6252 19.3752C22.1734 19.3752 19.3752 22.1735 19.3752 25.6252C19.3752 26.81 19.7048 27.9177 20.2773 28.8617C17.3903 29.4139 15.2085 31.9523 15.2085 35.0002C15.2085 38.0481 17.3903 40.5867 20.2773 41.1387M25.6252 19.3752C25.6252 16.4988 27.957 14.1669 30.8335 14.1669C33.71 14.1669 36.0418 16.4988 36.0418 19.3752V22.5002M25.6252 19.3752C25.6252 21.0792 26.4435 22.5921 27.7085 23.5423M20.2773 41.1387C19.7048 42.0829 19.3752 43.1906 19.3752 44.3752C19.3752 47.8271 22.1734 50.6252 25.6252 50.6252C25.6252 53.5017 27.957 55.8335 30.8335 55.8335C33.71 55.8335 36.0418 53.5017 36.0418 50.6252V47.5002M20.2773 41.1387C21.0199 39.9144 22.1711 38.9654 23.5418 38.4808" stroke="#42389E" stroke-width="1.5" stroke-linecap="round" stroke-linejoin="round"/>
<path d="M46.4583 28.75H42.2917C40.3275 28.75 39.3454 28.75 38.7352 29.3602C38.125 29.9704 38.125 30.9525 38.125 32.9167V37.0833C38.125 39.0475 38.125 40.0296 38.7352 40.6398C39.3454 41.25 40.3275 41.25 42.2917 41.25H46.4583C48.4225 41.25 49.4046 41.25 50.0148 40.6398C50.625 40.0296 50.625 39.0475 50.625 37.0833V32.9167C50.625 30.9525 50.625 29.9704 50.0148 29.3602C49.4046 28.75 48.4225 28.75 46.4583 28.75Z" stroke="#42389E" stroke-width="1.5" stroke-linecap="round" stroke-linejoin="round"/>
<path d="M41.2502 41.25V45.4167M47.5002 41.25V45.4167M41.2502 24.5833V28.75M47.5002 24.5833V28.75M38.1252 31.875H33.9585M38.1252 38.125H33.9585M54.7918 31.875H50.6252M54.7918 38.125H50.6252" stroke="#42389E" stroke-width="1.5" stroke-linecap="round" stroke-linejoin="round"/>
</svg>
