<svg width="66" height="51" viewBox="0 0 66 51" fill="none" xmlns="http://www.w3.org/2000/svg">
<path d="M0 35.1523V6.76529H17.0067C26.9768 8.54744 30.9237 16.4417 31.8324 18.2593L31.8395 18.2735C32.7346 20.0637 35.4199 21.0614 35.4199 21.0614C35.4199 21.0614 35.5257 21.3274 40.9183 21.9818C40.9183 21.9818 54.856 21.9818 54.856 33.7458C54.856 45.5098 40.9183 45.3819 40.9183 45.3819C40.9183 45.3819 35.7891 45.6015 32.7346 44.6147C30.949 44.0378 30.0469 43.3159 28.387 42.5688L32.7346 37.7097C35.4774 38.6435 37.2271 38.9408 40.9183 38.8605C40.9183 38.8605 47.9511 38.4769 47.9511 33.7458C47.9511 29.0146 40.9183 28.1195 40.9183 28.1195L33.6297 27.0965C30.1971 26.1103 28.6114 25.2758 26.7247 22.8769C24.1098 16.7046 22.0972 14.4414 17.0067 13.6702H6.90496V30.6769L0 35.1523Z" fill="#42389E"/>
<path d="M0 44.6147L6.90496 37.7097H17.0067C23.2551 36.2332 25.5023 33.8418 26.7247 26.0736C29.2592 27.9324 30.7485 28.6684 33.6297 29.0146C30.7915 39.4612 27.1515 42.8764 17.0067 44.6147H0Z" fill="#42389E"/>
<path d="M28.8985 9.32268L32.9903 14.1817C32.9903 14.1817 34.3969 12.3915 39.5117 12.1358C44.6265 11.8801 48.3347 16.2276 48.3347 16.2276L53.5773 13.1588C53.5773 13.1588 48.3347 5.7423 39.5117 6.25381C30.6887 6.76531 28.8985 9.32268 28.8985 9.32268Z" fill="#42389E"/>
<circle cx="40.534" cy="24.8067" r="21.9559" fill="#E6E7F3"/>
<path d="M49.503 8.90295C46.5826 7.32694 43.2962 6.5544 39.9796 6.66424C36.6629 6.77408 33.4349 7.76237 30.6252 9.52815C27.8155 11.2939 25.525 13.7739 23.9875 16.7147C22.45 19.6555 21.7207 22.9518 21.8741 26.2667C22.0276 29.5816 23.0582 32.7964 24.8607 35.5826C26.6633 38.3688 29.1732 40.6266 32.1339 42.1253C35.0947 43.624 38.4002 44.3099 41.7128 44.1129C45.0255 43.916 48.2264 42.8432 50.9887 41.0041L46.6427 34.4762C45.036 35.5459 43.1741 36.1699 41.2473 36.2845C39.3205 36.3991 37.3978 36.0001 35.6757 35.1284C33.9535 34.2566 32.4937 32.9434 31.4452 31.3228C30.3967 29.7021 29.7973 27.8322 29.708 25.9041C29.6188 23.976 30.043 22.0587 30.9373 20.3481C31.8316 18.6376 33.1639 17.1951 34.7981 16.168C36.4324 15.141 38.31 14.5661 40.2392 14.5022C42.1683 14.4383 44.0799 14.8877 45.7785 15.8044L49.503 8.90295Z" fill="#42389E"/>
</svg>
