<svg width="156" height="60" viewBox="0 0 156 60" fill="none" xmlns="http://www.w3.org/2000/svg">
<path d="M22.7301 23.5735L23.8741 23.5935L26.9821 20.4855L27.1321 19.1685C24.6621 16.9715 21.4121 15.6345 17.8551 15.6345C11.4151 15.6345 5.97914 20.0165 4.36914 25.9525C4.70914 25.7155 5.43414 25.8925 5.43414 25.8925L11.6461 24.8705C11.6461 24.8705 11.9661 24.3405 12.1261 24.3735C13.4596 22.9148 15.2993 22.0198 17.27 21.8711C19.2408 21.7225 21.193 22.3313 22.7301 23.5735Z" fill="#1A1F2D"/>
<path d="M31.3601 25.9635C30.646 23.3362 29.1808 20.9743 27.1441 19.1675L22.7421 23.5695C23.6456 24.2955 24.3746 25.215 24.8756 26.2601C25.3766 27.3053 25.6369 28.4495 25.6371 29.6085V30.3855C27.7791 30.3855 29.5171 32.1285 29.5171 34.2655C29.5171 36.4025 27.7741 38.1455 25.6371 38.1455H17.8751L17.0981 38.9255V43.5835L17.8751 44.3565H25.6371C28.3103 44.3493 30.8719 43.2838 32.7615 41.3929C34.6511 39.502 35.7149 36.9397 35.7201 34.2665C35.7161 30.8305 33.9841 27.7865 31.3501 25.9635H31.3601Z" fill="#1A1F2D"/>
<path d="M10.0941 44.3634H17.8541V38.1514H10.0941C9.54301 38.1517 8.99834 38.0334 8.49707 37.8044L7.37707 38.1474L4.26907 41.2554L3.99707 42.3054C5.74573 43.6481 7.89043 44.3726 10.0951 44.3654L10.0941 44.3634Z" fill="#1A1F2D"/>
<path d="M10.094 24.1765C7.41821 24.1807 4.85322 25.2456 2.96114 27.1377C1.06906 29.0297 0.00423135 31.5947 4.91191e-10 34.2705C-1.53802e-05 35.8286 0.361179 37.3655 1.05521 38.7606C1.74925 40.1556 2.75723 41.3707 4 42.3105L8.5 37.8105C7.81836 37.5038 7.23982 37.0068 6.83392 36.3791C6.42803 35.7515 6.21207 35.02 6.212 34.2725C6.212 32.1305 7.955 30.3925 10.092 30.3925C10.8392 30.3938 11.5702 30.6103 12.1976 31.016C12.825 31.4218 13.3223 31.9996 13.63 32.6805L18.13 28.1805C16.284 25.7505 13.37 24.1805 10.09 24.1805L10.094 24.1765Z" fill="#1A1F2D"/>
<path d="M51.4942 35.4289C49.3742 35.4289 47.5542 34.6789 46.0202 33.1789C44.4862 31.6789 43.7202 29.8749 43.7202 27.7709C43.7202 25.6669 44.4852 23.8629 46.0202 22.3629C47.5552 20.8629 49.3772 20.1119 51.4942 20.1119C52.4654 20.0978 53.4296 20.2771 54.3308 20.6393C55.232 21.0016 56.052 21.5395 56.7432 22.2219L55.2662 23.6989C54.2555 22.7216 52.899 22.1841 51.4932 22.2039C49.9632 22.2039 48.6632 22.7439 47.5972 23.8309C47.0786 24.3459 46.6698 24.9606 46.3953 25.6379C46.1208 26.3152 45.9864 27.0412 46.0002 27.7719C46.0002 29.3179 46.5302 30.6289 47.5972 31.7119C48.0986 32.238 48.7038 32.6542 49.3745 32.9343C50.0451 33.2144 50.7666 33.3521 51.4932 33.3389C53.0512 33.3389 54.3382 32.8389 55.3632 31.8049C55.9632 31.2049 56.3632 30.3049 56.5032 29.1699H51.4972V27.0779H58.5412C58.6162 27.4499 58.6412 27.8779 58.6412 28.3779C58.6412 30.4339 58.0382 32.0639 56.8282 33.2729C55.4562 34.7079 53.6782 35.4229 51.4832 35.4229L51.4942 35.4289ZM67.8642 34.0289C66.9042 34.9689 65.7342 35.4289 64.3522 35.4289C62.9702 35.4289 61.7982 34.9589 60.8402 34.0289C59.8822 33.0989 59.4022 31.9159 59.4022 30.5089C59.4022 29.1019 59.8822 27.9289 60.8402 26.9889C61.7982 26.0489 62.9702 25.5889 64.3522 25.5889C65.7342 25.5889 66.9062 26.0589 67.8642 26.9889C68.8222 27.9189 69.3022 29.1049 69.3022 30.5089C69.3022 31.9129 68.8222 33.0889 67.8642 34.0289ZM62.3902 32.6489C62.6397 32.92 62.9434 33.1357 63.2815 33.2819C63.6197 33.4282 63.9848 33.5018 64.3532 33.4979C65.1132 33.4979 65.7672 33.2159 66.3162 32.6479C66.8652 32.0799 67.1382 31.3679 67.1382 30.5079C67.1382 29.6379 66.8682 28.9199 66.3252 28.3579C65.7822 27.7959 65.1272 27.5179 64.3532 27.5179C63.9841 27.5122 63.6178 27.5841 63.2781 27.7287C62.9385 27.8734 62.6329 28.0878 62.3812 28.3579C61.8382 28.9179 61.5682 29.6339 61.5682 30.5079C61.5682 31.3659 61.8412 32.0809 62.3902 32.6479V32.6489ZM78.6632 34.0289C77.7032 34.9689 76.5332 35.4289 75.1512 35.4289C73.7692 35.4289 72.5972 34.9589 71.6392 34.0289C70.6812 33.0989 70.2012 31.9159 70.2012 30.5089C70.2012 29.1019 70.6812 27.9289 71.6392 26.9889C72.5972 26.0489 73.7692 25.5889 75.1512 25.5889C76.5332 25.5889 77.7052 26.0589 78.6632 26.9889C79.6212 27.9189 80.1012 29.1049 80.1012 30.5089C80.1012 31.9129 79.6212 33.0889 78.6632 34.0289ZM73.1892 32.6489C73.4387 32.92 73.7424 33.1357 74.0805 33.2819C74.4187 33.4282 74.7838 33.5018 75.1522 33.4979C75.9122 33.4979 76.5662 33.2159 77.1152 32.6479C77.6642 32.0799 77.9372 31.3679 77.9372 30.5079C77.9372 29.6379 77.6672 28.9199 77.1242 28.3579C76.5812 27.7959 75.9262 27.5179 75.1522 27.5179C74.7831 27.5122 74.4168 27.5841 74.0771 27.7287C73.7375 27.8734 73.4319 28.0878 73.1802 28.3579C72.6372 28.9179 72.3672 29.6339 72.3672 30.5079C72.3672 31.3659 72.6402 32.0809 73.1892 32.6479V32.6489ZM85.7622 39.8689C84.6672 39.8689 83.7452 39.5749 82.9982 38.9889C82.2512 38.4029 81.7162 37.7249 81.3922 36.9509L83.2802 36.1679C83.4782 36.6419 83.7802 37.0529 84.2132 37.4019C84.6462 37.7509 85.1532 37.9239 85.7652 37.9239C86.5872 37.9239 87.2332 37.6739 87.6982 37.1769C88.1632 36.6799 88.3982 35.9609 88.3982 35.0269V34.3269H88.3232C87.7232 35.0739 86.8462 35.4489 85.7272 35.4489C84.4692 35.4489 83.3672 34.9689 82.4202 34.0109C81.9602 33.5581 81.5971 33.0164 81.353 32.4188C81.1089 31.8213 80.9888 31.1803 81.0002 30.5349C80.9887 29.8854 81.1085 29.2404 81.3525 28.6384C81.5965 28.0364 81.9597 27.49 82.4202 27.0319C83.3652 26.0689 84.4702 25.5849 85.7272 25.5849C86.2872 25.5849 86.7952 25.6899 87.2492 25.9029C87.7032 26.1159 88.0622 26.3769 88.3232 26.6859H88.3982V25.8919H90.4542V34.7489C90.4542 36.4689 90.0162 37.7529 89.1362 38.6089C88.2562 39.4589 87.1342 39.8889 85.7632 39.8889L85.7622 39.8689ZM85.9122 33.4969C86.2687 33.5032 86.6222 33.4303 86.9471 33.2835C87.272 33.1367 87.5603 32.9196 87.7912 32.6479C88.2952 32.0809 88.5472 31.3749 88.5472 30.5259C88.5472 29.6679 88.2952 28.9499 87.7912 28.3759C87.5617 28.102 87.2738 27.8828 86.9487 27.7344C86.6237 27.586 86.2695 27.512 85.9122 27.5179C85.1522 27.5179 84.5042 27.8059 83.9702 28.3759C83.4362 28.9459 83.1662 29.6639 83.1662 30.5259C83.1662 31.3719 83.4332 32.0809 83.9702 32.6479C84.5072 33.2149 85.1532 33.4969 85.9122 33.4969ZM94.1142 20.6319V35.1319H91.9472V20.6319H94.1142ZM100.054 35.4279C98.6582 35.4279 97.4942 34.9539 96.5602 34.0079C95.6262 33.0619 95.1582 31.8919 95.1582 30.4959C95.1582 29.0519 95.6082 27.8659 96.5122 26.9459C96.9363 26.4996 97.4484 26.1462 98.0161 25.908C98.5837 25.6697 99.1947 25.5519 99.8102 25.5619C100.407 25.5619 100.963 25.6699 101.473 25.8889C101.947 26.0832 102.379 26.3686 102.743 26.7289C103.047 27.0314 103.317 27.3664 103.547 27.7279C103.738 28.0368 103.9 28.3621 104.033 28.6999L104.258 29.2599L97.6642 31.9919C98.1642 32.9879 98.9642 33.4869 100.056 33.4869C101.052 33.4869 101.863 33.0339 102.484 32.1239L104.164 33.2459C103.789 33.8059 103.261 34.3109 102.576 34.7589C101.891 35.2069 101.048 35.4289 100.052 35.4289L100.054 35.4279ZM97.3082 30.3479L101.708 28.5179C101.582 28.2059 101.354 27.9539 101.008 27.7619C100.66 27.567 100.267 27.4676 99.8682 27.4739C99.2322 27.4739 98.6382 27.7339 98.0852 28.2569C97.5322 28.7799 97.2652 29.4789 97.2902 30.3489L97.3082 30.3479ZM115.638 35.4279C113.668 35.4279 112.018 34.7619 110.686 33.4279C109.354 32.0939 108.686 30.4329 108.686 28.4399C108.686 26.4469 109.352 24.7839 110.686 23.4519C112.02 22.1199 113.669 21.4519 115.638 21.4519C117.655 21.4519 119.294 22.1819 120.551 23.6369L119.356 24.7969C118.456 23.6629 117.206 23.0969 115.636 23.0969C114.176 23.0969 112.95 23.5889 111.936 24.5739C110.922 25.5589 110.432 26.8459 110.432 28.4399C110.432 30.0339 110.932 31.3239 111.936 32.3099C112.94 33.2959 114.169 33.7869 115.636 33.7869C117.242 33.7869 118.613 33.1389 119.736 31.8449L120.931 33.0399C120.305 33.7871 119.519 34.3841 118.631 34.7869C117.69 35.22 116.664 35.4393 115.627 35.4289L115.638 35.4279ZM124.194 35.1319H122.474V21.7549H124.194V35.1319ZM126.997 27.0719C127.882 26.1449 128.997 25.6789 130.379 25.6789C131.761 25.6789 132.876 26.1439 133.761 27.0719C134.646 27.9999 135.088 29.1719 135.088 30.5569C135.088 31.9419 134.648 33.1139 133.761 34.0419C132.874 34.9699 131.761 35.4349 130.379 35.4349C128.997 35.4349 127.882 34.9699 126.997 34.0419C126.112 33.1139 125.67 31.9419 125.67 30.5569C125.67 29.1719 126.11 27.9999 126.997 27.0719ZM128.277 32.9549C128.877 33.5579 129.571 33.8609 130.377 33.8609C131.183 33.8609 131.877 33.5579 132.477 32.9549C133.077 32.3519 133.365 31.5499 133.365 30.5549C133.365 29.5599 133.068 28.7569 132.477 28.1549C131.886 27.5529 131.183 27.2489 130.377 27.2489C129.571 27.2489 128.877 27.5519 128.277 28.1549C127.677 28.7579 127.389 29.5599 127.389 30.5549C127.389 31.5499 127.686 32.3529 128.277 32.9549ZM144.597 35.1319H142.952V33.8619H142.877C142.617 34.2969 142.217 34.6689 141.682 34.9619C141.147 35.2549 140.582 35.4219 139.982 35.4219C138.835 35.4219 137.968 35.0739 137.377 34.3749C136.786 33.6759 136.489 32.7419 136.489 31.5719V25.9659H138.209V31.2899C138.209 32.9979 138.962 33.8499 140.469 33.8499C140.807 33.857 141.141 33.7827 141.443 33.6334C141.746 33.484 142.008 33.264 142.207 32.9919C142.652 32.4282 142.889 31.7288 142.879 31.0109V25.9659H144.599V35.1229L144.597 35.1319ZM150.425 35.4289C149.242 35.4289 148.219 34.9609 147.361 34.0269C146.503 33.0929 146.073 31.9349 146.073 30.5509C146.073 29.1669 146.503 28.0089 147.361 27.0749C148.219 26.1409 149.243 25.6729 150.425 25.6729C151.121 25.6729 151.749 25.8229 152.305 26.1199C152.861 26.4169 153.275 26.7919 153.548 27.2419H153.623L153.548 25.9719V21.7519H155.268V35.1319H153.623V33.8619H153.548C153.275 34.3089 152.861 34.6839 152.305 34.9839C151.75 35.2779 151.122 35.4289 150.425 35.4289ZM150.705 33.8589C151.093 33.8642 151.478 33.7869 151.834 33.6323C152.19 33.4776 152.509 33.2491 152.77 32.9619C153.337 32.3649 153.62 31.5599 153.62 30.5619C153.62 29.5639 153.338 28.7489 152.77 28.1619C152.509 27.8746 152.19 27.6461 151.834 27.4915C151.478 27.3369 151.093 27.2596 150.705 27.2649C149.907 27.2649 149.222 27.5679 148.649 28.1709C148.076 28.7739 147.791 29.5759 147.791 30.5709C147.791 31.5659 148.076 32.3689 148.649 32.9709C148.908 33.2591 149.225 33.489 149.58 33.6452C149.934 33.8014 150.318 33.8804 150.705 33.8769V33.8589Z" fill="#1A1F2D"/>
</svg>
